#!OML:ASF X:\für Bonn\!DataBase\2005_08_11_Bastian_Final\c3d\Bastian.ASF
:FULLY-SPECIFIED
:DEGREES
108
root 24.3406 17.1343 -2.58181 361.57 -76.3135 -3.78797
lowerback 53.1461 -4.11092 19.2947
upperback 18.0987 1.5618 3.77846
thorax 0.948401 0.501982 -4.80224
lowerneck -1.7228 -9.56257 -1.78117
upperneck -11.161 -12.3269 8.98022
head -2.58025 -6.50797 3.38849
rclavicle -7.31528e-014 7.95139e-016
rhumerus 36.2472 6.90901 -51.8501
rradius 19.0258
rwrist -3.08235
rhand -24.5848 -3.78101
rfingers 7.12502
rthumb 1.91257 -33.7522
lclavicle -7.31528e-014 7.95139e-016
lhumerus -7.54926 -25.2262 87.4351
lradius 46.0621
lwrist 21.219
lhand -14.5377 -11.4551
lfingers 7.12502
lthumb 11.6106 18.2032
rfemur -27.3103 -8.1026 24.5987
rtibia 42.6343
rfoot -5.69732 -0.740431
rtoes 5.20604
lfemur -25.2656 2.92566 -20.1025
ltibia 29.5614
lfoot 2.42399 -1.24329
ltoes -7.77686
109
root 24.3416 17.1306 -2.57555 361.395 -76.4225 -2.79679
lowerback 53.6353 -4.14772 19.3305
upperback 18.0446 1.62889 3.72027
thorax 0.863022 0.528893 -4.87296
lowerneck -1.85423 -9.58958 -1.73943
upperneck -11.6892 -12.3591 8.96359
head -2.73814 -6.54504 3.39846
rclavicle 5.725e-014 5.32743e-014
rhumerus 37.0803 6.27439 -51.4782
rradius 18.889
rwrist -3.02301
rhand -24.528 -3.84354
rfingers 7.12502
rthumb 1.96744 -33.8142
lclavicle 5.725e-014 5.32743e-014
lhumerus -7.34484 -25.4398 87.2689
lradius 46.453
lwrist 21.3554
lhand -14.528 -11.6467
lfingers 7.12502
lthumb 11.62 18.0112
rfemur -28.4046 -8.35073 24.4925
rtibia 42.9519
rfoot -5.73004 -0.356676
rtoes 5.43677
lfemur -26.0714 2.81589 -20.396
ltibia 29.425
lfoot 3.01231 -0.988196
ltoes -5.94131
110
root 24.3412 17.1272 -2.56944 361.205 -76.5062 -1.79304
lowerback 54.1386 -4.20112 19.3526
upperback 17.9834 1.67555 3.66194
thorax 0.766752 0.544063 -4.93042
lowerneck -2.03181 -9.60706 -1.69905
upperneck -12.1556 -12.3821 8.94532
head -2.86812 -6.57539 3.40179
rclavicle 7.63333e-014 1.74931e-014
rhumerus 37.933 5.57867 -51.2108
rradius 18.7221
rwrist -2.90289
rhand -24.4694 -3.86171
rfingers 7.12502
rthumb 2.02406 -33.8319
lclavicle 7.63333e-014 1.74931e-014
lhumerus -7.14728 -25.5995 87.0902
lradius 46.8683
lwrist 21.5262
lhand -14.4783 -11.7543
lfingers 7.12502
lthumb 11.6679 17.9008
rfemur -29.4927 -8.57437 24.39
rtibia 43.2671
rfoot -5.76074 -0.00906883
rtoes 5.53834
lfemur -26.8757 2.69043 -20.6864
ltibia 29.2991
lfoot 3.49885 -0.75623
ltoes -4.35828
111
root 24.3399 17.1226 -2.56369 361.059 -76.5932 -0.806246
lowerback 54.6079 -4.24109 19.3437
upperback 17.9249 1.71577 3.59918
thorax 0.672934 0.555966 -4.9809
lowerneck -2.18701 -9.62901 -1.62703
upperneck -12.6302 -12.4135 8.90859
head -3.00875 -6.6116 3.39659
rclavicle 8.26944e-014 -4.13472e-014
rhumerus 38.7808 5.09852 -50.7638
rradius 18.6313
rwrist -3.01129
rhand -24.423 -3.92832
rfingers 7.12502
rthumb 2.06886 -33.898
lclavicle 8.26944e-014 -4.13472e-014
lhumerus -6.99482 -25.7735 86.8812
lradius 47.3254
lwrist 21.7548
lhand -14.4901 -11.8269
lfingers 7.12502
lthumb 11.6565 17.8289
rfemur -30.6102 -8.81906 24.3131
rtibia 43.5778
rfoot -5.80852 0.361143
rtoes 5.57703
lfemur -27.7043 2.53203 -20.9482
ltibia 29.189
lfoot 3.88294 -0.462585
ltoes -2.91604
112
root 24.3384 17.1189 -2.55853 361.015 -76.639 0.0894922
lowerback 55.0516 -4.3092 19.384
upperback 17.8704 1.74343 3.52427
thorax 0.593907 0.568654 -5.06048
lowerneck -2.47681 -9.65402 -1.40634
upperneck -13.0309 -12.4687 8.71652
head -3.11865 -6.6578 3.30263
rclavicle 6.67916e-014 3.18055e-014
rhumerus 39.6435 4.34876 -50.6168
rradius 18.437
rwrist -2.77262
rhand -24.3622 -3.91677
rfingers 7.12502
rthumb 2.12757 -33.8859
lclavicle 6.67916e-014 3.18055e-014
lhumerus -6.78213 -25.8694 86.656
lradius 47.7115
lwrist 22.1299
lhand -14.3154 -12.0026
lfingers 7.12502
lthumb 11.8249 17.6435
rfemur -31.7326 -9.0186 24.2634
rtibia 43.8858
rfoot -5.84178 0.638849
rtoes 5.68968
lfemur -28.5694 2.491 -21.2234
ltibia 29.0878
lfoot 4.22114 -0.359316
ltoes -2.13271
113
root 24.3354 17.1144 -2.55391 360.745 -76.6885 1.19664
lowerback 55.4934 -4.34158 19.3282
upperback 17.8379 1.75862 3.47177
thorax 0.525228 0.568273 -5.07514
lowerneck -2.8172 -9.66504 -1.18136
upperneck -13.4367 -12.5171 8.46202
head -3.22695 -6.69961 3.18519
rclavicle 2.8625e-014 2.38542e-015
rhumerus 40.5156 3.96036 -50.0856
rradius 18.3794
rwrist -3.02508
rhand -24.3678 -4.0318
rfingers 7.12502
rthumb 2.12216 -34.001
lclavicle 2.8625e-014 2.38542e-015
lhumerus -6.58953 -25.9098 86.4483
lradius 48.0975
lwrist 22.4703
lhand -14.1981 -12.1397
lfingers 7.12502
lthumb 11.9381 17.4999
rfemur -32.831 -9.16822 24.1558
rtibia 44.1933
rfoot -5.88774 0.883121
rtoes 5.70825
lfemur -29.4065 2.39081 -21.5315
ltibia 28.9962
lfoot 4.47345 -0.200285
ltoes -1.41561
114
root 24.3327 17.1102 -2.54949 360.61 -76.7002 2.18044
lowerback 55.9223 -4.39422 19.3003
upperback 17.7874 1.76921 3.43244
thorax 0.442356 0.565159 -5.08469
lowerneck -3.19055 -9.68451 -0.95004
upperneck -13.7838 -12.5862 8.17229
head -3.31158 -6.74951 3.05004
rclavicle -6.36111e-015 -7.95139e-016
rhumerus 41.3462 3.60521 -49.5262
rradius 18.3609
rwrist -3.33334
rhand -24.3927 -4.17181
rfingers 7.12502
rthumb 2.09813 -34.1412
lclavicle -6.36111e-015 -7.95139e-016
lhumerus -6.42037 -25.968 86.2512
lradius 48.5302
lwrist 22.9082
lhand -14.0402 -12.1584
lfingers 7.12502
lthumb 12.0903 17.4723
rfemur -33.9462 -9.31448 24.0826
rtibia 44.4991
rfoot -5.93069 1.0786
rtoes 5.85939
lfemur -30.2748 2.37174 -21.8377
ltibia 28.9122
lfoot 4.69066 -0.177566
ltoes -1.00286
115
root 24.3287 17.105 -2.54474 360.338 -76.7213 3.30359
lowerback 56.3486 -4.43811 19.2603
upperback 17.7326 1.78459 3.37136
thorax 0.35532 0.56715 -5.11566
lowerneck -3.4511 -9.70112 -0.739446
upperneck -14.1907 -12.6403 7.97737
head -3.43198 -6.7975 2.96178
rclavicle 0 -4.77083e-015
rhumerus 42.1369 3.27571 -48.9162
rradius 18.3282
rwrist -3.6449
rhand -24.4341 -4.29444
rfingers 7.12502
rthumb 2.05816 -34.2643
lclavicle 0 -4.77083e-015
lhumerus -6.27792 -26.0196 86.0624
lradius 48.9277
lwrist 23.3692
lhand -13.8736 -12.1101
lfingers 7.12502
lthumb 12.2509 17.5111
rfemur -35.0596 -9.38533 23.9638
rtibia 44.8194
rfoot -5.9643 1.22034
rtoes 5.86652
lfemur -31.1303 2.34822 -22.1772
ltibia 28.8108
lfoot 4.87752 -0.151422
ltoes -0.652808
116
root 24.3242 17.1003 -2.53988 360.05 -76.7229 4.42712
lowerback 56.8098 -4.50152 19.2379
upperback 17.657 1.79981 3.31723
thorax 0.247566 0.567116 -5.14317
lowerneck -3.65903 -9.70311 -0.660955
upperneck -14.6115 -12.6609 7.91026
head -3.55206 -6.82822 2.94079
rclavicle -3.81667e-014 -3.89618e-014
rhumerus 42.8811 2.99898 -48.2009
rradius 18.369
rwrist -4.15562
rhand -24.484 -4.46968
rfingers 7.12502
rthumb 2.00994 -34.44
lclavicle -3.81667e-014 -3.89618e-014
lhumerus -6.12363 -26.1092 85.9262
lradius 49.231
lwrist 23.8612
lhand -13.7161 -12.0091
lfingers 7.12502
lthumb 12.4028 17.603
rfemur -36.1514 -9.4589 23.8468
rtibia 45.1385
rfoot -6.01734 1.3253
rtoes 5.83752
lfemur -31.963 2.30451 -22.5148
ltibia 28.7094
lfoot 5.01449 -0.104333
ltoes -0.503108
117
root 24.3194 17.095 -2.53476 359.289 -76.7009 6.04249
lowerback 57.2528 -4.53453 19.0945
upperback 17.5801 1.78808 3.2593
thorax 0.11899 0.549047 -5.12098
lowerneck -3.77309 -9.66943 -0.563434
upperneck -15.0751 -12.6291 7.8572
head -3.70849 -6.83589 2.93142
rclavicle -8.90555e-014 -3.4191e-014
rhumerus 43.7723 2.47148 -47.8632
rradius 18.0329
rwrist -4.15591
rhand -24.5729 -4.39609
rfingers 7.12502
rthumb 1.92403 -34.3672
lclavicle -8.90555e-014 -3.4191e-014
lhumerus -5.9678 -26.164 85.7978
lradius 49.4654
lwrist 24.3606
lhand -13.6054 -11.858
lfingers 7.12502
lthumb 12.5095 17.7475
rfemur -37.2586 -9.51468 23.5867
rtibia 45.4784
rfoot -6.07376 1.43343
rtoes 5.91813
lfemur -32.7989 2.36982 -23.0291
ltibia 28.5785
lfoot 5.19544 -0.224671
ltoes -0.604123
118
root 24.314 17.0897 -2.52908 358.658 -76.6718 7.51664
lowerback 57.7154 -4.59527 19.0016
upperback 17.4777 1.77994 3.17829
thorax -0.0285844 0.536734 -5.14316
lowerneck -3.84654 -9.64121 -0.44659
upperneck -15.541 -12.5988 7.84302
head -3.87316 -6.84713 2.93517
rclavicle 2.22639e-014 4.09496e-014
rhumerus 44.598 1.91245 -47.5758
rradius 17.7487
rwrist -4.13109
rhand -24.6274 -4.34996
rfingers 7.12502
rthumb 1.87142 -34.3215
lclavicle 2.22639e-014 4.09496e-014
lhumerus -5.80299 -26.3191 85.6309
lradius 49.6084
lwrist 24.884
lhand -13.5187 -11.7948
lfingers 7.12502
lthumb 12.5931 17.8056
rfemur -38.3441 -9.55299 23.3514
rtibia 45.8141
rfoot -6.12318 1.4958
rtoes 6.00739
lfemur -33.6313 2.42232 -23.5144
ltibia 28.4443
lfoot 5.35004 -0.350671
ltoes -1.02516
